<?xml version="1.0" standalone="no"?>
<!DOCTYPE svg PUBLIC "-//W3C//DTD SVG 20010904//EN"
 "http://www.w3.org/TR/2001/REC-SVG-20010904/DTD/svg10.dtd">
<svg version="1.0" xmlns="http://www.w3.org/2000/svg" viewBox="0 0 2884.000000 3912.000000"
 preserveAspectRatio="xMidYMid meet">
<metadata>
Created by potrace 1.16, written by Peter Selinger 2001-2019
</metadata>
<g transform="translate(0.000000,3912.000000) scale(0.100000,-0.100000)"
fill="#333A56" stroke="none">
<path d="M12710 36066 c-901 -40 -957 -43 -995 -63 -22 -11 -75 -33 -119 -47
-43 -15 -146 -57 -230 -93 -83 -36 -223 -96 -311 -134 -88 -37 -234 -99 -324
-138 -90 -39 -168 -71 -173 -71 -5 0 -81 -30 -168 -67 -140 -59 -176 -79 -317
-180 -87 -63 -228 -160 -313 -217 -85 -57 -177 -120 -205 -142 -55 -42 -296
-211 -418 -293 -43 -28 -166 -100 -275 -158 -108 -58 -226 -122 -262 -143 -36
-21 -126 -68 -200 -106 -124 -62 -430 -226 -725 -387 -66 -36 -138 -73 -160
-82 -31 -12 -59 -40 -125 -125 -47 -60 -126 -160 -177 -222 -51 -62 -149 -183
-217 -268 -69 -85 -136 -168 -150 -185 -13 -16 -71 -55 -128 -86 -187 -101
-968 -609 -1151 -748 -56 -43 -140 -103 -186 -135 -115 -78 -205 -153 -411
-340 -220 -199 -264 -248 -443 -491 -143 -194 -230 -394 -266 -610 -33 -196
-5 -474 70 -697 64 -191 128 -324 266 -556 40 -67 73 -125 73 -128 0 -14 101
-171 218 -339 133 -191 378 -521 393 -531 17 -10 -55 -127 -120 -196 -67 -72
-180 -144 -301 -191 -71 -28 -234 -77 -256 -77 -8 0 -119 -106 -248 -237 -204
-206 -240 -247 -282 -322 -53 -94 -289 -462 -338 -526 -35 -46 -264 -321 -340
-408 -28 -32 -94 -101 -146 -152 -94 -92 -96 -96 -113 -166 -16 -68 -22 -77
-110 -173 -125 -136 -218 -256 -330 -428 -89 -136 -227 -374 -227 -393 0 -4
-48 -105 -108 -224 l-107 -216 2 -100 c3 -120 24 -400 59 -785 30 -323 31
-314 -37 -526 l-41 -127 57 -156 c175 -478 164 -442 205 -681 42 -243 79 -424
137 -674 l37 -160 101 -110 c55 -61 123 -138 150 -171 28 -32 107 -120 177
-195 70 -74 128 -142 128 -150 0 -8 43 -57 95 -109 53 -51 163 -166 245 -256
131 -143 154 -172 189 -250 23 -49 40 -89 39 -91 -2 -1 -32 4 -68 12 -134 28
-243 15 -297 -38 -46 -44 -65 -83 -98 -203 -25 -89 -28 -115 -26 -235 5 -368
32 -546 117 -783 44 -122 79 -241 105 -360 37 -172 38 -186 39 -376 1 -136 -4
-236 -16 -322 -14 -105 -16 -174 -11 -449 8 -434 24 -768 42 -897 8 -59 15
-158 15 -221 0 -126 21 -248 69 -403 51 -162 132 -391 155 -439 13 -25 62
-184 110 -355 49 -170 95 -332 103 -360 12 -37 18 -124 23 -330 6 -227 12
-311 34 -447 l26 -167 123 -188 123 -188 178 -144 c98 -79 191 -148 207 -154
19 -8 37 -8 56 -1 24 8 28 16 31 51 l3 41 -112 93 c-62 52 -148 123 -191 159
-89 74 -168 183 -212 293 -17 42 -34 119 -47 205 -11 75 -26 173 -35 217 -34
181 -42 248 -49 400 -15 382 -54 540 -210 865 -162 339 -222 550 -240 855 -4
55 -13 154 -21 220 -20 167 -34 480 -41 880 -4 278 -2 362 11 460 10 76 16
192 16 320 0 195 -1 207 -40 396 -30 151 -55 237 -110 389 -38 107 -77 226
-85 265 -17 86 -34 286 -37 460 -2 120 0 137 27 220 19 59 39 101 60 124 29
31 36 34 83 32 28 -1 84 -13 124 -27 40 -15 89 -29 109 -31 36 -5 38 -7 99
-135 69 -144 220 -512 280 -683 21 -60 62 -171 90 -245 l52 -135 -27 -180
c-26 -177 -40 -230 -147 -570 -36 -114 -43 -154 -59 -319 -15 -165 -16 -194
-3 -235 8 -25 32 -125 54 -222 40 -176 46 -216 99 -624 26 -197 34 -234 76
-355 52 -148 113 -296 140 -336 12 -18 23 -24 42 -22 51 6 67 116 83 568 5
146 15 312 23 370 8 58 20 146 26 195 30 236 199 1203 246 1408 8 34 32 233
55 442 44 421 41 406 196 905 l63 205 31 365 c35 416 27 369 130 805 73 308
91 407 170 930 11 74 40 201 68 295 27 91 76 257 108 369 l58 203 -22 437
c-21 422 -22 441 -57 601 -91 420 -170 806 -186 906 l-12 82 36 76 c20 42 78
152 128 244 148 268 213 397 284 562 37 85 221 466 409 845 1107 2226 1116
2245 1144 2262 15 9 110 71 212 138 328 217 479 315 485 315 3 0 94 55 203
122 305 188 417 255 542 323 63 34 182 99 263 144 219 120 482 256 583 300 49
22 141 62 204 91 685 309 1372 486 2300 594 118 14 278 30 355 36 77 6 183 15
235 21 242 24 883 55 1340 65 l305 6 180 -37 c99 -20 225 -45 280 -55 55 -10
253 -48 440 -84 699 -134 1026 -196 1092 -205 120 -18 180 -29 653 -120 256
-49 530 -102 610 -117 l144 -27 109 -86 c173 -137 245 -196 435 -356 97 -82
195 -163 217 -180 22 -16 49 -39 60 -51 11 -12 124 -111 250 -220 342 -294
756 -671 1015 -921 124 -120 127 -124 242 -320 63 -109 142 -243 175 -298 33
-55 82 -138 108 -185 88 -157 313 -494 397 -595 158 -189 333 -306 517 -346
45 -9 58 -18 93 -62 54 -69 86 -142 156 -360 60 -185 90 -298 137 -512 141
-640 144 -651 203 -810 149 -397 210 -564 226 -615 10 -30 107 -293 216 -585
194 -520 264 -715 257 -721 -2 -2 -34 -21 -72 -42 -39 -21 -116 -65 -173 -98
l-102 -59 3 -680 c3 -609 5 -702 25 -885 43 -419 67 -913 82 -1725 l11 -550
45 -330 c25 -181 65 -474 89 -650 24 -176 46 -351 50 -390 6 -66 108 -843 120
-912 14 -77 20 -19 20 174 0 135 5 229 13 268 36 166 104 314 214 469 80 114
371 416 400 416 10 0 31 18 46 40 25 37 400 355 565 479 40 30 126 95 192 145
277 208 277 208 313 294 76 176 295 720 304 752 6 19 28 78 50 130 62 144 219
529 314 770 156 392 233 583 300 745 150 363 194 535 243 965 33 280 50 586
56 1025 7 489 18 713 46 952 35 311 107 768 218 1401 l61 343 0 210 c0 218
-12 392 -36 539 -8 47 -20 226 -26 398 l-11 314 -94 171 c-110 199 -202 380
-248 487 -18 41 -81 181 -140 310 -150 329 -227 508 -305 710 -37 96 -91 231
-119 300 -108 260 -274 693 -329 855 -53 158 -220 606 -231 618 -15 19 -1667
837 -1751 868 -24 9 -117 95 -290 270 -310 313 -768 789 -810 844 -17 22 -77
90 -133 150 -57 61 -127 138 -157 173 -34 40 -70 70 -99 83 -96 43 -551 229
-560 229 -23 0 -163 71 -266 135 -271 168 -415 254 -475 287 -58 32 -241 143
-630 381 -68 43 -129 77 -135 77 -6 0 -54 17 -106 38 -302 123 -1023 411
-1189 475 -146 57 -229 82 -330 102 -74 15 -301 63 -505 107 -203 43 -469 100
-590 125 -324 66 -812 175 -1503 333 -338 77 -641 144 -675 150 -34 5 -197 41
-362 79 -215 51 -316 71 -360 70 -33 -1 -490 -20 -1015 -43z"/>
<path d="M8870 23035 l-825 -84 -90 -45 c-80 -40 -162 -86 -472 -261 -45 -25
-111 -67 -145 -92 -35 -26 -95 -71 -135 -101 -146 -108 -270 -231 -340 -336
-175 -265 -296 -608 -348 -986 -37 -269 -41 -310 -32 -310 6 0 58 26 116 57
58 32 117 63 131 69 36 16 491 268 579 322 41 24 124 69 185 100 61 30 152 78
201 107 50 29 162 92 250 140 88 48 193 108 232 132 101 60 132 70 258 82 61
6 437 50 837 98 l726 87 174 -82 c255 -119 671 -303 813 -359 320 -125 486
-175 665 -199 134 -18 316 -18 401 0 221 47 386 215 548 558 73 156 125 292
118 311 -3 8 -20 17 -39 20 -18 3 -166 50 -329 105 -266 91 -398 139 -782 287
-66 25 -125 45 -132 45 -7 0 -93 32 -190 70 -119 47 -222 81 -309 100 -72 16
-355 78 -628 139 -346 77 -515 111 -555 110 -32 -1 -429 -39 -883 -84z"/>
<path d="M18080 22743 c-145 -14 -333 -50 -443 -84 -242 -76 -613 -284 -966
-543 -272 -201 -408 -298 -447 -321 l-40 -24 -33 -371 c-18 -204 -30 -374 -27
-377 3 -4 135 30 294 75 469 133 681 191 792 217 58 13 143 33 190 45 92 21
443 82 580 100 226 30 586 28 845 -5 371 -48 601 -94 1336 -270 1018 -243
1275 -290 1594 -290 151 0 178 3 240 23 90 31 115 49 151 114 28 51 29 58 29
183 0 182 -5 194 -117 280 -51 39 -161 124 -245 190 -84 66 -212 166 -285 223
-73 56 -189 147 -258 202 -223 179 -188 165 -725 299 -357 90 -629 150 -925
205 -343 65 -547 91 -985 126 -112 9 -476 11 -555 3z"/>
<path d="M10015 20501 c-3 -5 3 -12 12 -15 128 -38 392 -111 438 -121 129 -27
260 -68 415 -130 58 -24 159 -61 225 -84 243 -82 294 -102 472 -191 100 -49
185 -90 188 -90 27 0 -83 140 -152 191 -146 112 -399 252 -552 309 -218 80
-363 108 -646 125 -271 17 -392 18 -400 6z"/>
<path d="M8235 20460 c-155 -24 -339 -88 -560 -195 -183 -88 -252 -134 -369
-246 -109 -102 -185 -224 -158 -251 8 -8 32 9 84 57 77 71 232 179 308 214
140 65 559 187 835 245 90 19 394 52 651 71 189 13 294 30 294 46 0 14 -67 30
-205 51 -208 30 -710 35 -880 8z"/>
<path d="M9475 20313 c-385 -48 -612 -104 -1024 -252 -131 -47 -275 -121 -376
-193 -70 -51 -112 -94 -101 -105 3 -4 97 24 209 60 111 37 258 83 327 103 157
44 451 104 550 111 l75 5 34 -198 c18 -110 39 -219 45 -244 8 -29 56 -108 138
-226 70 -99 134 -186 142 -193 41 -34 21 -36 -286 -29 -496 12 -723 25 -833
47 -119 24 -170 38 -208 58 -36 18 -46 10 -22 -17 46 -51 235 -143 356 -175
207 -53 365 -74 904 -120 422 -36 650 -48 755 -42 247 16 788 132 1040 223 69
25 139 50 155 56 17 5 42 13 58 15 15 3 27 12 27 21 0 13 -19 14 -157 9 -87
-4 -237 -18 -333 -31 -96 -14 -231 -28 -300 -31 l-125 -6 80 29 c127 46 128
47 161 93 43 60 127 230 153 309 28 88 73 300 67 317 -6 15 -16 17 188 -32
255 -62 426 -133 521 -217 25 -22 48 -39 50 -36 8 7 -60 101 -106 147 -106
105 -343 229 -549 285 -47 13 -160 44 -251 69 -208 58 -550 127 -824 166 -169
25 -240 31 -360 30 -83 -1 -163 -4 -180 -6z"/>
<path d="M17520 20155 c-183 -31 -434 -107 -553 -166 -212 -107 -474 -324
-619 -514 -85 -111 -142 -235 -108 -235 6 0 10 4 10 10 0 18 74 93 189 189
126 106 177 144 236 176 98 54 278 157 365 211 95 57 372 196 420 208 14 4 34
11 45 16 11 4 72 25 135 45 115 38 140 50 140 66 0 13 -173 9 -260 -6z"/>
<path d="M19685 20056 c22 -15 219 -94 305 -121 122 -40 364 -140 515 -214 88
-43 210 -102 270 -131 182 -86 485 -258 583 -332 30 -22 56 -37 59 -35 8 9
-99 137 -171 205 -82 77 -150 131 -236 189 -36 24 -90 62 -120 84 -90 66 -270
175 -350 211 -195 89 -541 156 -810 158 -57 0 -62 -1 -45 -14z"/>
<path d="M18280 20039 c-208 -24 -561 -112 -748 -186 -90 -35 -302 -149 -407
-218 -167 -109 -306 -253 -321 -331 -3 -19 -4 -37 -1 -40 2 -3 46 28 96 68
108 87 210 147 363 216 239 108 607 199 953 236 33 4 4 -8 -89 -34 -249 -71
-246 -70 -246 -86 0 -9 16 -87 36 -173 34 -148 40 -163 116 -302 l80 -145 110
-89 c60 -50 114 -96 120 -103 9 -10 -68 -12 -428 -7 -347 5 -451 3 -494 -7
-74 -18 -80 -43 -13 -52 26 -4 118 -18 203 -31 490 -76 658 -99 839 -116 189
-17 534 -38 542 -33 4 2 113 11 241 19 342 21 722 61 856 90 40 8 84 15 98 15
38 0 128 35 178 69 50 34 62 65 24 56 -156 -34 -178 -35 -667 -35 -271 0 -492
4 -495 9 -3 5 15 24 40 44 25 19 81 84 126 144 45 59 104 137 133 173 47 59
54 75 79 175 65 266 57 245 85 245 14 0 60 -9 101 -21 41 -11 107 -28 145 -38
203 -54 492 -175 697 -291 87 -49 161 -90 164 -90 10 0 147 -101 178 -132 17
-15 33 -28 38 -28 27 0 -9 43 -144 176 -240 234 -377 330 -663 460 -373 170
-706 269 -1155 343 -356 59 -572 73 -770 50z"/>
<path d="M8030 18683 c1 -5 28 -28 62 -53 33 -25 80 -61 105 -81 24 -20 77
-53 117 -75 46 -24 72 -43 69 -51 -3 -8 2 -13 13 -13 10 0 80 -18 154 -40 131
-38 272 -71 314 -72 12 -1 84 -14 161 -30 163 -33 148 -31 143 -15 -3 6 -18
15 -34 18 -16 4 25 7 91 8 289 3 637 54 1040 151 154 38 345 151 345 205 0 19
0 19 -71 -9 -121 -50 -213 -65 -593 -96 -204 -16 -417 -30 -475 -30 -59 0
-158 -5 -221 -11 -127 -11 -387 -15 -396 -6 -3 3 1 29 10 58 25 88 0 81 -29
-8 -20 -63 -18 -63 -201 -33 -171 28 -415 104 -544 170 -41 21 -60 25 -60 13z"/>
<path d="M17580 18456 c0 -19 71 -79 142 -121 94 -55 602 -224 973 -323 203
-54 309 -69 580 -82 421 -19 473 -15 792 65 169 43 263 76 263 92 0 5 -28 7
-62 5 -420 -24 -654 -23 -768 2 -41 10 -144 26 -229 37 -166 21 -244 34 -626
104 -815 149 -788 143 -943 201 -102 38 -122 41 -122 20z"/>
<path d="M15760 17627 c0 -70 53 -468 105 -793 24 -149 57 -237 141 -374 43
-69 93 -152 111 -186 86 -151 647 -901 818 -1091 28 -31 46 -70 94 -195 107
-279 121 -492 49 -718 -32 -100 -95 -245 -132 -303 -34 -52 -171 -220 -184
-225 -4 -1 -13 10 -19 25 -7 16 -30 46 -51 68 -20 22 -79 86 -130 141 -135
148 -293 254 -465 313 -93 32 -261 54 -357 47 -301 -21 -443 -93 -523 -263
-43 -92 -62 -204 -52 -305 6 -61 12 -76 53 -129 51 -68 134 -141 233 -205 99
-63 138 -81 230 -105 l83 -21 137 28 137 27 74 -33 c69 -32 80 -34 183 -35
129 0 166 10 332 93 138 69 223 130 336 246 177 181 311 389 370 571 52 161
59 198 64 360 5 137 2 176 -16 270 -39 208 -103 357 -217 512 -73 99 -437 542
-587 714 -47 54 -257 325 -398 513 -79 106 -88 130 -189 471 -39 132 -101 330
-136 440 -36 110 -67 206 -69 213 -3 6 -9 12 -15 12 -6 0 -10 -33 -10 -83z"/>
<path d="M8396 16943 c-67 -284 -169 -808 -186 -958 -5 -44 -12 -100 -16 -125
-4 -25 -4 -42 0 -39 4 3 13 48 22 100 37 230 153 813 204 1029 34 141 33 140
21 140 -5 0 -25 -66 -45 -147z"/>
<path d="M12216 16271 c-29 -31 -118 -143 -242 -306 -69 -91 -284 -410 -410
-608 -27 -42 -74 -117 -105 -165 -113 -175 -154 -262 -240 -510 -28 -82 -40
-202 -29 -284 13 -89 85 -260 148 -347 68 -96 99 -129 276 -288 133 -120 174
-150 250 -187 180 -89 185 -89 732 -94 l482 -3 133 26 c277 53 403 100 452
166 35 49 34 107 -6 199 -48 111 -91 179 -157 248 -161 171 -358 224 -723 197
-189 -15 -235 -21 -364 -54 -111 -28 -182 -56 -249 -100 -93 -61 -140 -110
-154 -161 -13 -47 -9 -208 5 -244 8 -18 7 -18 -21 0 -190 120 -374 323 -487
536 -81 153 -71 262 51 548 58 137 162 346 287 575 171 317 230 434 265 525
18 47 45 112 61 145 15 33 38 86 49 117 12 32 26 60 31 63 11 7 12 35 1 35 -5
0 -21 -13 -36 -29z"/>
<path d="M10181 15199 c-18 -11 -35 -18 -38 -15 -6 5 -12 3 -128 -47 -44 -19
-143 -61 -220 -95 -280 -120 -402 -170 -482 -196 -76 -25 -102 -40 -91 -52 11
-10 501 182 698 273 47 22 135 62 195 88 61 27 114 52 120 57 19 17 -21 7 -54
-13z"/>
<path d="M8133 15053 c6 -138 28 -232 70 -294 37 -55 135 -99 235 -106 58 -4
82 -3 82 6 0 7 -19 11 -49 11 -87 0 -206 48 -249 100 -46 55 -71 171 -72 323
0 58 -4 87 -11 87 -9 0 -10 -35 -6 -127z"/>
<path d="M14990 13573 c-228 -116 -255 -122 -555 -123 -256 0 -289 7 -465 95
-130 65 -170 77 -170 51 0 -21 123 -131 209 -188 113 -74 259 -111 435 -110
96 0 142 6 223 26 163 42 254 89 378 200 44 39 95 83 113 98 29 24 43 50 25
47 -5 -1 -91 -44 -193 -96z"/>
<path d="M13465 13019 c-275 -9 -283 -10 -409 -39 -184 -41 -917 -256 -1331
-390 -82 -26 -190 -60 -240 -75 -147 -44 -539 -189 -762 -281 -114 -47 -251
-104 -303 -125 -348 -143 -726 -385 -931 -595 -114 -117 -134 -141 -214 -259
-109 -162 -162 -280 -234 -525 -52 -176 -130 -554 -117 -567 3 -3 93 35 199
85 106 51 196 92 200 92 7 0 290 134 592 280 88 43 207 99 265 125 58 25 157
71 220 101 126 60 158 67 610 149 570 102 1168 194 1400 215 63 5 228 21 365
35 332 33 475 43 815 56 375 14 802 -5 1250 -56 74 -8 196 -22 270 -30 365
-38 860 -161 1470 -365 113 -37 219 -71 235 -75 17 -4 57 -17 90 -30 33 -13
157 -59 275 -103 118 -44 339 -129 490 -190 151 -60 286 -113 300 -117 28 -8
286 -114 365 -150 28 -12 111 -48 185 -80 74 -32 180 -78 235 -102 55 -25 111
-49 124 -54 l24 -10 -6 134 c-11 236 -86 531 -193 754 -91 190 -245 390 -464
601 -65 64 -250 209 -279 220 -9 3 -43 25 -76 47 -201 140 -502 308 -860 483
-395 192 -787 362 -834 362 -6 0 -55 17 -108 39 -54 21 -183 68 -288 104 -629
216 -1052 299 -1720 337 -188 11 -273 11 -610 -1z"/>
<path d="M14090 10493 c-139 -4 -583 -41 -825 -68 -185 -21 -435 -56 -780
-110 -293 -46 -762 -160 -1007 -244 -138 -48 -435 -186 -533 -249 -147 -94
-267 -209 -280 -268 -4 -16 -9 -37 -12 -46 -7 -27 11 -23 148 32 243 99 514
166 804 200 104 12 476 35 820 51 271 13 1122 7 1560 -10 154 -6 478 -15 720
-21 762 -17 1201 -64 2320 -251 737 -122 894 -155 1375 -284 178 -47 180 -48
180 -32 0 8 -39 27 -97 47 -54 19 -161 65 -238 103 -77 38 -167 80 -200 92
-33 13 -121 53 -195 88 -296 142 -745 340 -820 362 -14 4 -115 41 -225 82
-413 155 -946 313 -1205 358 -47 9 -164 31 -260 51 -376 76 -841 129 -1080
122 -41 -1 -118 -3 -170 -5z"/>
<path d="M12984 8537 c-22 -25 -100 -125 -174 -223 -133 -177 -176 -256 -211
-389 -11 -41 -31 -98 -168 -460 -43 -115 -77 -213 -74 -217 2 -5 711 -8 1575
-8 1446 0 1570 1 1564 16 -4 9 -68 105 -144 213 -76 108 -192 273 -257 366
-65 94 -156 220 -201 280 -45 61 -95 133 -111 161 -22 37 -168 249 -188 272
-1 1 -256 7 -566 12 -310 5 -663 12 -784 16 l-221 7 -40 -46z"/>
<path d="M6570 7559 c0 -10 71 -142 205 -379 26 -47 78 -143 114 -215 76 -149
289 -538 331 -605 16 -25 58 -103 93 -175 36 -71 82 -159 103 -195 20 -36 64
-114 97 -175 60 -110 137 -209 466 -603 147 -177 152 -183 347 -426 73 -89
150 -177 173 -195 23 -18 71 -67 107 -109 36 -43 154 -168 263 -279 108 -111
309 -319 446 -463 138 -144 310 -324 383 -400 l133 -137 257 -96 c141 -53 353
-132 469 -176 117 -44 241 -89 275 -100 61 -19 186 -65 718 -265 l255 -96 225
-30 c290 -38 462 -57 580 -65 52 -4 185 -15 296 -25 504 -47 983 -51 1259 -11
77 11 176 25 220 31 272 36 805 214 1210 404 50 23 124 57 165 75 150 65 320
163 471 273 85 61 184 132 221 158 81 55 318 227 453 329 55 42 141 103 190
136 78 53 136 95 375 275 25 19 64 55 86 80 21 24 47 51 56 60 25 23 215 247
258 305 21 27 69 84 106 125 87 95 221 251 305 355 35 44 74 89 85 100 12 11
86 97 166 190 79 94 259 305 400 470 141 165 314 368 384 450 70 83 151 176
181 208 29 32 86 100 127 150 40 51 113 138 162 193 292 334 292 334 263 334
-10 0 -272 -149 -373 -213 -28 -17 -70 -41 -95 -53 -25 -12 -122 -65 -216
-119 -267 -153 -408 -232 -565 -312 -80 -41 -264 -137 -410 -214 -146 -76
-404 -204 -575 -284 -170 -81 -341 -161 -380 -180 -81 -39 -442 -195 -450
-195 -3 0 -117 -43 -253 -96 -435 -170 -817 -293 -1051 -339 -719 -140 -977
-173 -1510 -195 -458 -19 -1014 7 -1921 91 -396 37 -307 7 -870 288 -206 103
-409 203 -450 221 -41 19 -268 129 -505 246 -236 116 -632 311 -880 432 -809
395 -1453 711 -1820 892 -198 98 -452 222 -565 275 -113 54 -281 137 -375 185
-184 95 -215 108 -215 89z"/>
</g>
</svg>
