<?xml version="1.0" standalone="no"?>
<!DOCTYPE svg PUBLIC "-//W3C//DTD SVG 20010904//EN"
 "http://www.w3.org/TR/2001/REC-SVG-20010904/DTD/svg10.dtd">
<svg xmlns="http://www.w3.org/2000/svg" version="1.0" viewBox="0 0 512.000000 512.000000" preserveAspectRatio="xMidYMid meet">

<g transform="translate(0.000000,512.000000) scale(0.100000,-0.100000)" fill="#000000" stroke="none">
<path d="M2415 4874 c-264 -59 -482 -268 -559 -537 -46 -157 -44 -323 6 -557 75 -352 282 -634 529 -719 382 -133 770 194 878 737 62 308 46 488 -62 697 -32 62 -63 102 -137 175 -103 104 -178 150 -305 190 -94 29 -255 35 -350 14z m-185 -509 c252 -87 483 -85 662 5 l77 38 55 -106 c62 -123 96 -225 96 -289 l0 -44 41 48 c23 26 45 49 48 51 4 1 3 -37 -1 -85 -49 -526 -365 -894 -716 -833 -229 39 -436 264 -525 570 -21 70 -49 232 -42 238 3 3 24 -3 48 -15 l42 -20 0 176 c0 147 3 184 18 223 21 53 62 93 86 82 9 -4 59 -22 111 -39z"/>
<path d="M1820 3124 c-177 -45 -370 -163 -483 -296 -56 -66 -137 -187 -137 -205 0 -10 102 -13 525 -13 366 0 525 3 525 11 0 6 -13 29 -29 52 -102 149 -241 410 -241 454 0 19 -5 23 -32 23 -18 -1 -76 -12 -128 -26z"/>
<path d="M3150 3130 c0 -34 -94 -203 -199 -358 -56 -82 -101 -152 -101 -155 0 -4 243 -7 540 -7 297 0 540 4 540 8 0 17 -72 128 -125 192 -130 159 -335 282 -537 324 -102 21 -118 21 -118 -4z"/>
<path d="M2345 2909 c10 -47 41 -95 82 -126 35 -27 35 -27 31 -97 l-3 -71 94 -3 94 -3 -7 70 -7 70 49 48 c33 31 54 63 63 91 7 23 10 44 8 47 -3 2 -25 -3 -49 -12 -68 -24 -205 -29 -273 -9 -31 9 -64 19 -73 23 -14 5 -15 1 -9 -28z"/>
<path xmlns="http://www.w3.org/2000/svg" fill="#ffb441" d="M765 2551 c-68 -31 -105 -86 -105 -154 0 -28 344 -1678 371 -1779 12 -45 50 -92 93 -116 29 -16 128 -17 1436 -17 1308 0 1407 1 1436 17 43 24 82 71 93 116 27 102 371 1752 371 1779 0 68 -37 123 -105 154 -38 18 -110 19 -1795 19 -1685 0 -1757 -1 -1795 -19z m1865 -976 c35 -36 34 -95 -3 -132 -60 -61 -162 -19 -162 66 0 89 101 130 165 66z"/>
<path d="M975 415 c-16 -15 -25 -36 -25 -55 0 -19 9 -40 25 -55 l24 -25 1561 0 1561 0 24 25 c33 32 33 78 0 110 l-24 25 -1561 0 -1561 0 -24 -25z"/>
</g>
</svg>
